<svg width="1200" height="800" viewBox="0 0 1200 800" fill="none" xmlns="http://www.w3.org/2000/svg">
  <rect width="1200" height="800" fill="#eef3f9"/>
  <rect width="176" height="800" fill="#171717"/>
  <circle cx="32" cy="32" r="14" fill="#f8fafc"/>
  <text x="54" y="38" fill="#f8fafc" font-family="Inter, Arial, sans-serif" font-size="12" font-weight="700">PT. Mitra Graha Andalan</text>
  <rect x="18" y="118" width="126" height="22" rx="6" fill="#f59e0b"/>
  <text x="38" y="133" fill="#111827" font-family="Inter, Arial, sans-serif" font-size="11" font-weight="700">Dashboard</text>
  <text x="22" y="178" fill="#f8fafc" font-family="Inter, Arial, sans-serif" font-size="11" font-weight="700">Tenant</text>
  <text x="22" y="222" fill="#f8fafc" font-family="Inter, Arial, sans-serif" font-size="11" font-weight="700">Unit</text>
  <text x="22" y="266" fill="#f8fafc" font-family="Inter, Arial, sans-serif" font-size="11" font-weight="700">Meter Air</text>
  <text x="22" y="310" fill="#f8fafc" font-family="Inter, Arial, sans-serif" font-size="11" font-weight="700">Invoice</text>
  <text x="22" y="354" fill="#f8fafc" font-family="Inter, Arial, sans-serif" font-size="11" font-weight="700">Broadcast</text>
  <rect x="212" y="24" width="946" height="56" rx="8" fill="#ffffff"/>
  <rect x="212" y="104" width="516" height="230" rx="10" fill="#ffffff"/>
  <text x="236" y="138" fill="#26364d" font-family="Inter, Arial, sans-serif" font-size="18" font-weight="700">Grafik Pembayaran Dan Tunggakan</text>
  <line x1="274" y1="290" x2="684" y2="290" stroke="#d7dde8" stroke-dasharray="6 6"/>
  <line x1="274" y1="230" x2="684" y2="230" stroke="#d7dde8" stroke-dasharray="6 6"/>
  <line x1="274" y1="170" x2="684" y2="170" stroke="#d7dde8" stroke-dasharray="6 6"/>
  <path d="M276 290 C360 290 432 290 470 290 C512 290 520 174 552 174 C586 174 592 290 640 290 C658 290 672 290 686 290" stroke="#7c6bf4" stroke-width="3" fill="none"/>
  <path d="M276 290 H686" stroke="#ef5350" stroke-width="2"/>
  <circle cx="416" cy="144" r="5" fill="#7c6bf4"/>
  <text x="430" y="149" fill="#8390a2" font-family="Inter, Arial, sans-serif" font-size="12">Pembayaran</text>
  <circle cx="514" cy="144" r="5" fill="#ef5350"/>
  <text x="528" y="149" fill="#8390a2" font-family="Inter, Arial, sans-serif" font-size="12">Tunggakan</text>
  <rect x="746" y="104" width="238" height="112" rx="10" fill="#ffffff"/>
  <circle cx="936" cy="150" r="32" fill="#f59e0b"/>
  <text x="770" y="136" fill="#26364d" font-family="Inter, Arial, sans-serif" font-size="15" font-weight="700">Invoice Dibayar</text>
  <text x="770" y="170" fill="#26364d" font-family="Inter, Arial, sans-serif" font-size="28" font-weight="800">50%</text>
  <rect x="1000" y="104" width="158" height="112" rx="10" fill="#ffffff"/>
  <circle cx="1112" cy="150" r="32" fill="#35d37f"/>
  <text x="1024" y="136" fill="#26364d" font-family="Inter, Arial, sans-serif" font-size="15" font-weight="700">Total Pemasukan</text>
  <text x="1024" y="170" fill="#26364d" font-family="Inter, Arial, sans-serif" font-size="28" font-weight="800">Rp 98rb</text>
  <rect x="746" y="236" width="238" height="112" rx="10" fill="#ffffff"/>
  <circle cx="936" cy="282" r="32" fill="#ef4b42"/>
  <text x="770" y="268" fill="#26364d" font-family="Inter, Arial, sans-serif" font-size="15" font-weight="700">Total Tunggakan</text>
  <text x="770" y="302" fill="#26364d" font-family="Inter, Arial, sans-serif" font-size="28" font-weight="800">Rp 0</text>
  <rect x="1000" y="236" width="158" height="112" rx="10" fill="#7567ee"/>
  <text x="1024" y="270" fill="#ffffff" font-family="Inter, Arial, sans-serif" font-size="15" font-weight="800">Invoice Bulan Ini</text>
  <text x="1024" y="312" fill="#ffffff" font-family="Inter, Arial, sans-serif" font-size="24" font-weight="800">2</text>
  <text x="1090" y="312" fill="#ffffff" font-family="Inter, Arial, sans-serif" font-size="24" font-weight="800">1</text>
  <text x="1144" y="312" fill="#ffffff" font-family="Inter, Arial, sans-serif" font-size="24" font-weight="800">1</text>
  <rect x="212" y="374" width="946" height="198" rx="10" fill="#ffffff"/>
  <text x="236" y="410" fill="#26364d" font-family="Inter, Arial, sans-serif" font-size="18" font-weight="700">Invoice Terbaru</text>
  <rect x="236" y="438" width="898" height="48" fill="#e7effc"/>
  <text x="254" y="469" fill="#26364d" font-family="Inter, Arial, sans-serif" font-size="13" font-weight="700">No</text>
  <text x="324" y="469" fill="#26364d" font-family="Inter, Arial, sans-serif" font-size="13" font-weight="700">No. Invoice</text>
  <text x="542" y="469" fill="#26364d" font-family="Inter, Arial, sans-serif" font-size="13" font-weight="700">Unit</text>
  <text x="690" y="469" fill="#26364d" font-family="Inter, Arial, sans-serif" font-size="13" font-weight="700">Tenant</text>
  <text x="876" y="469" fill="#26364d" font-family="Inter, Arial, sans-serif" font-size="13" font-weight="700">Total</text>
  <text x="1078" y="469" fill="#26364d" font-family="Inter, Arial, sans-serif" font-size="13" font-weight="700">Status</text>
  <text x="254" y="526" fill="#26364d" font-family="Inter, Arial, sans-serif" font-size="14">1</text>
  <text x="324" y="526" fill="#f59e0b" font-family="Inter, Arial, sans-serif" font-size="14" font-weight="800">INV-0626-0000002</text>
  <text x="542" y="526" fill="#26364d" font-family="Inter, Arial, sans-serif" font-size="14">A01-Sewa</text>
  <text x="690" y="526" fill="#26364d" font-family="Inter, Arial, sans-serif" font-size="14">Amri Sewa D</text>
  <text x="876" y="526" fill="#26364d" font-family="Inter, Arial, sans-serif" font-size="14">Rp 97.500</text>
  <rect x="1074" y="508" width="48" height="20" rx="5" fill="#35d37f"/>
  <text x="1085" y="522" fill="#ffffff" font-family="Inter, Arial, sans-serif" font-size="10" font-weight="800">Lunas</text>
  <text x="236" y="640" fill="#9a6a3c" font-family="Inter, Arial, sans-serif" font-size="34" font-weight="900">ERP Pembayaran IPL &amp; Air</text>
  <text x="238" y="678" fill="#536176" font-family="Inter, Arial, sans-serif" font-size="18" font-weight="600">Cash Payment • Xendit Payment Gateway • Invoice • Tenant • Meter Air</text>
</svg>
