<svg width="160" height="160" viewBox="0 0 160 160" fill="none" xmlns="http://www.w3.org/2000/svg" role="img" aria-labelledby="title desc">
  <title id="title">RAF Logo</title>
  <desc id="desc">A modern RAF monogram logo with backend API node accents.</desc>
  <rect width="160" height="160" rx="34" fill="#09090B"/>
  <path d="M31 42C31 35.9249 35.9249 31 42 31H118C124.075 31 129 35.9249 129 42V118C129 124.075 124.075 129 118 129H42C35.9249 129 31 124.075 31 118V42Z" fill="url(#paint0_linear)"/>
  <path d="M43 53C43 47.4772 47.4772 43 53 43H107C112.523 43 117 47.4772 117 53V107C117 112.523 112.523 117 107 117H53C47.4772 117 43 112.523 43 107V53Z" fill="#18181B" stroke="url(#paint1_linear)" stroke-width="2"/>
  <path d="M39 80H58" stroke="#10B981" stroke-width="4" stroke-linecap="round"/>
  <path d="M102 80H121" stroke="#F59E0B" stroke-width="4" stroke-linecap="round"/>
  <circle cx="58" cy="80" r="5" fill="#10B981"/>
  <circle cx="102" cy="80" r="5" fill="#F59E0B"/>
  <path d="M54 100V60H75C83.2843 60 90 66.7157 90 75C90 83.2843 83.2843 90 75 90H66" stroke="#F8FAFC" stroke-width="8" stroke-linecap="round" stroke-linejoin="round"/>
  <path d="M86 100L98 60L110 100" stroke="#F8FAFC" stroke-width="8" stroke-linecap="round" stroke-linejoin="round"/>
  <path d="M91 86H105" stroke="#10B981" stroke-width="6" stroke-linecap="round"/>
  <path d="M116 62H138" stroke="#F8FAFC" stroke-width="8" stroke-linecap="round"/>
  <path d="M116 80H134" stroke="#F8FAFC" stroke-width="8" stroke-linecap="round"/>
  <path d="M116 98H126" stroke="#F8FAFC" stroke-width="8" stroke-linecap="round"/>
  <circle cx="36" cy="36" r="4" fill="#10B981"/>
  <circle cx="124" cy="124" r="4" fill="#F59E0B"/>
  <defs>
    <linearGradient id="paint0_linear" x1="31" y1="31" x2="129" y2="129" gradientUnits="userSpaceOnUse">
      <stop stop-color="#10B981"/>
      <stop offset="0.48" stop-color="#155E75"/>
      <stop offset="1" stop-color="#F59E0B"/>
    </linearGradient>
    <linearGradient id="paint1_linear" x1="43" y1="43" x2="117" y2="117" gradientUnits="userSpaceOnUse">
      <stop stop-color="#6EE7B7"/>
      <stop offset="1" stop-color="#FCD34D"/>
    </linearGradient>
  </defs>
</svg>
